# xmcd
#
# Track frame offsets:
#	150
#	14247
#	28565
#	41162
#	53792
#	66120
#	79652
#	93545
#	107397
#	120825
#	133367
#	147267
#	161235
#	175652
#	189765
#	202297
#	216880
#	228862
#	242485
#	257482
#	271202
#	285235
#	288520
#
# Disc length: 3951 seconds
#
# Revision: 0
# Processed by: cddbd v1.5.2PL0 Copyright (c) Steve Scherf et al.
# Submitted via: EasyCDDAExtractor 2010.3.0.0
#
DISCID=490f6d17
DTITLE=Autry Gene - That Silver Haired Daddy Of Mine Disc 9
DYEAR=1900
DGENRE=
TTITLE0=Don't Take Me Back To The Chain Gang
TTITLE1=Don't Take Me Back To The Chain Gang (Alt.)
TTITLE2=In The Valley Of The Moon (Alt.)
TTITLE3=In The Valley Of The Moon
TTITLE4=When The Mailman Says No Mail Today
TTITLE5=When The Humming Birds Are Humming (Alt.)
TTITLE6=When The Humming Birds Are Humming
TTITLE7=Roll Along Kentucky Moon
TTITLE8=That Mother And Daddy Of Mine
TTITLE9=Way Out West In Texas
TTITLE10=Dying Cowgirl
TTITLE11=Death Of Jimmie Rodgers
TTITLE12=Life Of Jimmie Rodgers
TTITLE13=If You'll Let Me Be Your Little Sweetheart
TTITLE14=That Old Feather Bed On The Farm
TTITLE15=There's An Empty Cot In The Bunkhouse Tonight
TTITLE16=Hillbilly Wedding In June
TTITLE17=Moonlight Down In Lover's Lane
TTITLE18=Last Round-Up
TTITLE19=When Jimmie Rodgers Said Goodbye
TTITLE20=Good Luck Old Pal
TTITLE21=Bye Bye Boyfriend
TTITLE22=Frankie And Johnnie (Alt.)
EXTD=
EXTT0=
EXTT1=
EXTT2=
EXTT3=
EXTT4=
EXTT5=
EXTT6=
EXTT7=
EXTT8=
EXTT9=
EXTT10=
EXTT11=
EXTT12=
EXTT13=
EXTT14=
EXTT15=
EXTT16=
EXTT17=
EXTT18=
EXTT19=
EXTT20=
EXTT21=
EXTT22=
PLAYORDER=
